<?xml version="1.0" standalone="no"?>
<!DOCTYPE svg PUBLIC "-//W3C//DTD SVG 20010904//EN"
 "http://www.w3.org/TR/2001/REC-SVG-20010904/DTD/svg10.dtd">
<svg version="1.0" xmlns="http://www.w3.org/2000/svg"
 width="647.000000pt" height="479.000000pt" viewBox="0 0 647.000000 479.000000"
 preserveAspectRatio="xMidYMid meet">

<g transform="translate(0.000000,479.000000) scale(0.100000,-0.100000)"
fill="#000000" stroke="none">
<path d="M2415 3225 c-167 -37 -313 -115 -430 -230 -128 -126 -193 -243 -236
-422 -18 -74 -20 -108 -16 -213 6 -145 28 -235 87 -355 47 -95 137 -218 152
-209 6 4 8 2 4 -4 -7 -12 72 -84 85 -77 4 3 11 0 15 -6 5 -8 2 -10 -7 -4 -8 4
-1 -4 16 -18 16 -14 33 -23 37 -20 5 2 8 0 8 -6 0 -16 56 -42 77 -35 13 4 14
3 5 -3 -9 -7 -2 -14 26 -27 22 -10 51 -19 65 -19 14 -1 23 -5 20 -9 -4 -7 15
-12 44 -11 7 1 10 -3 7 -8 -7 -12 9 -12 21 0 6 6 25 6 45 1 30 -7 32 -8 10
-10 -14 -2 0 -6 30 -10 89 -13 950 -12 950 1 0 5 5 7 11 4 7 -5 9 13 7 52 l-3
58 -87 21 c-230 56 -387 191 -460 397 -24 68 -28 93 -28 191 0 66 6 135 15
168 46 177 182 334 352 402 32 13 59 31 61 40 2 10 -35 55 -95 114 -106 105
-212 175 -320 211 -143 48 -343 63 -468 36z m32 -1651 c-3 -3 -12 -4 -19 -1
-8 3 -5 6 6 6 11 1 17 -2 13 -5z m60 -30 c-3 -3 -12 -4 -19 -1 -8 3 -5 6 6 6
11 1 17 -2 13 -5z m50 -10 c-3 -3 -12 -4 -19 -1 -8 3 -5 6 6 6 11 1 17 -2 13
-5z"/>
<path d="M3340 2776 c-137 -30 -279 -145 -346 -281 l-39 -79 0 -146 0 -146 38
-77 c92 -186 300 -317 485 -305 l47 3 -2 50 c0 28 -2 112 -2 188 l-1 137 -45
0 c-57 0 -65 -15 -65 -117 0 -43 -3 -88 -6 -101 -10 -35 -45 -37 -105 -6 -78
39 -115 70 -160 133 -173 241 -41 579 248 633 32 6 64 12 71 14 8 2 12 23 12
59 l0 55 -37 -1 c-21 0 -63 -6 -93 -13z"/>
<path d="M3622 2268 l3 -523 55 0 55 0 0 520 0 520 -58 3 -57 3 2 -523z"/>
<path d="M3835 2763 c12 -48 33 -164 90 -491 47 -271 70 -399 91 -509 4 -20
11 -23 53 -23 46 0 50 2 55 28 7 33 65 357 106 592 17 96 39 225 50 285 28
155 31 147 -37 143 l-58 -3 -7 -45 c-16 -105 -88 -517 -94 -537 -7 -24 -19
-30 -29 -14 -3 6 -10 34 -15 63 -13 75 -79 467 -86 506 l-5 32 -61 0 -60 0 7
-27z"/>
<path d="M4401 2658 c4 -229 12 -300 38 -337 l23 -33 -27 -54 c-27 -54 -27
-55 -29 -272 l-1 -217 55 0 55 0 5 213 5 214 28 24 c41 35 97 33 139 -5 l33
-29 3 -212 3 -211 52 3 52 3 0 220 c0 230 0 230 -48 297 -9 14 -9 22 1 35 47
66 52 90 52 296 l0 197 -62 0 -61 0 6 -149 c4 -82 4 -171 0 -196 -12 -94 -104
-137 -170 -81 l-28 24 -5 199 -5 198 -58 3 -58 3 2 -133z"/>
<path d="M3312 2554 c-55 -27 -109 -83 -139 -143 -14 -27 -18 -59 -18 -136 0
-89 3 -106 27 -150 25 -48 107 -135 127 -135 12 0 21 51 21 116 0 65 19 89 80
99 l43 7 -6 162 c-3 88 -9 171 -13 184 -9 31 -56 29 -122 -4z"/>
</g>
</svg>
